PathFileType	4	(X/Y/Z)	Kaydara																																																																																																																									
DataRate	CameraRate	NumFrames	NumMarkers	Units	OrigDataRate	OrigDataStartFrame	OrigNumFrames																																																																																																																					
30	30	6	41	mm	30	16	154																																																																																																																					
Frame#	Time	PAIB_LFHD			PAIB_RFHD			PAIB_LBHD			PAIB_RBHD			PAIB_LFTShould			PAIB_RFTShould			PAIB_LRRShould			PAIB_RRRShould			PAIB_T10			PAIB_STRN			PAIB_TRUN			PAIB_LSHO			PAIB_LUPA			PAIB_LELB			PAIB_LFRM			PAIB_LWRA			PAIB_LWRB			PAIB_LFIN			PAIB_RSHO			PAIB_RUPA			PAIB_RELB			PAIB_RFRM			PAIB_RWRA			PAIB_RWRB			PAIB_RFIN			PAIB_LFWT			PAIB_RFWT			PAIB_LBWT			PAIB_RBWT			PAIB_LTHI			PAIB_LKNE			PAIB_LSHN			PAIB_LANK			PAIB_LHEE			PAIB_LTOE			PAIB_RTHI			PAIB_RKNE			PAIB_RSHN			PAIB_RANK			PAIB_RHEE			PAIB_RTOE		
		X1	Y1	Z1	X2	Y2	Z2	X3	Y3	Z3	X4	Y4	Z4	X5	Y5	Z5	X6	Y6	Z6	X7	Y7	Z7	X8	Y8	Z8	X9	Y9	Z9	X10	Y10	Z10	X11	Y11	Z11	X12	Y12	Z12	X13	Y13	Z13	X14	Y14	Z14	X15	Y15	Z15	X16	Y16	Z16	X17	Y17	Z17	X18	Y18	Z18	X19	Y19	Z19	X20	Y20	Z20	X21	Y21	Z21	X22	Y22	Z22	X23	Y23	Z23	X24	Y24	Z24	X25	Y25	Z25	X26	Y26	Z26	X27	Y27	Z27	X28	Y28	Z28	X29	Y29	Z29	X30	Y30	Z30	X31	Y31	Z31	X32	Y32	Z32	X33	Y33	Z33	X34	Y34	Z34	X35	Y35	Z35	X36	Y36	Z36	X37	Y37	Z37	X38	Y38	Z38	X39	Y39	Z39	X40	Y40	Z40	X41	Y41	Z41
																																																																																																																												
1	0.49	250.79624	1700.78781	-1958.36136	65.98699	1701.97083	-1971.90018	267.48276	1660.3009	-2081.76712	64.39537	1673.84369	-2084.58054	225.01631	1433.70956	-1955.95367	101.52689	1430.89737	-1958.30353	235.1029	1488.38058	-2103.79105	81.44077	1488.8266	-2096.61224	156.6261	1324.2981	-2170.7283	171.37117	1369.44595	-1913.92456	170.39059	1269.82193	-1885.10193	356.41106	1438.20099	-2036.74835	409.53102	1209.84329	-2042.24655	420.12497	1124.61205	-2081.33026	444.0258	1013.3371	-2032.26563	399.00414	910.39597	-1928.12546	426.50948	883.63998	-1996.15265	448.11913	854.74083	-1933.06366	-27.63934	1430.67642	-2015.27145	-90.81275	1255.31738	-2055.53055	-112.5013	1138.3065	-2059.40826	-134.95382	1004.77272	-2021.51642	-86.75028	906.86325	-1912.89139	-149.61995	890.495	-1966.29349	-148.4984	860.0177	-1897.314	273.01044	967.17308	-1921.01746	36.63237	969.40491	-1919.75067	211.85169	1029.11148	-2133.20313	67.10464	1032.51488	-2129.52911	260.09808	752.36656	-2143.41583	293.69299	497.30988	-2064.20502	274.86019	313.24253	-2063.11478	278.25855	129.32617	-2152.59323	224.88155	120.3264	-2201.71234	258.16601	74.5947	-1978.46786	9.70568	732.97157	-2138.26004	2.72228	487.45056	-2072.01706	60.22023	303.33714	-2064.28467	29.07321	105.76214	-2154.75342	90.83936	113.58065	-2206.06247	48.70155	76.962	-1981.61728
2	0.523	251.38136	1700.81024	-1958.3757	66.6221	1701.99387	-1971.85791	267.85288	1659.91287	-2081.41937	64.94296	1673.75076	-2084.51218	225.39543	1433.71368	-1955.52567	102.0697	1430.87006	-1957.9451	235.69424	1488.33282	-2103.40988	81.96129	1488.77243	-2096.37421	157.28831	1324.26987	-2170.48584	171.83605	1369.33975	-1913.56323	170.81614	1269.78569	-1884.72656	357.02606	1438.30505	-2036.31271	409.96395	1209.71481	-2041.12122	420.86895	1124.75342	-2080.58945	444.81529	1013.53233	-2031.47827	399.7327	910.55397	-1927.29767	427.31274	883.81142	-1995.37994	448.79005	854.84238	-1932.1994	-27.15113	1430.60883	-2014.9968	-90.22542	1255.23201	-2055.36026	-111.95189	1138.16315	-2059.25049	-134.40113	1004.69193	-2021.34338	-86.24432	906.85379	-1912.69012	-149.05759	890.40977	-1966.16333	-147.91928	859.95987	-1897.10571	273.47694	967.09084	-1920.60089	37.3456	969.29779	-1919.32053	212.37009	1029.09142	-2132.80441	67.66793	1032.49481	-2129.09836	260.6254	752.39471	-2143.13492	294.07059	497.2987	-2063.97797	275.06905	313.17801	-2062.96967	278.29988	129.30561	-2152.64359	224.9028	120.35161	-2201.66473	258.16669	74.58533	-1978.46237	10.31914	732.84561	-2137.77405	3.14107	487.36553	-2071.71371	60.52496	303.32436	-2063.99597	29.28879	105.80388	-2154.61761	90.97871	113.60343	-2206.00311	48.74641	76.96427	-1981.60568
3	0.557	251.87645	1700.84976	-1958.30643	67.1168	1701.97083	-1971.78818	268.11785	1659.54956	-2080.86792	65.47781	1673.60428	-2084.38156	226.07342	1433.78296	-1955.37247	102.49811	1430.87601	-1957.68799	236.24773	1488.27499	-2103.03085	82.55555	1488.7146	-2096.07269	157.89927	1324.1983	-2170.13962	172.25267	1369.3277	-1913.20877	171.38275	1269.84833	-1884.35013	357.61204	1438.25821	-2035.73273	410.86414	1209.87747	-2040.71884	421.77357	1124.75853	-2079.91882	445.64198	1013.62656	-2030.68634	400.3936	910.73265	-1926.4476	428.04558	883.8443	-1994.47098	449.40865	854.97719	-1931.27335	-26.62906	1430.52765	-2014.79294	-89.71821	1255.1844	-2055.15991	-111.4145	1138.12302	-2059.10294	-133.72396	1004.54979	-2021.13754	-85.44591	906.78848	-1912.54364	-148.34752	890.20775	-1965.96573	-147.20611	859.74838	-1896.96243	273.98407	967.07863	-1920.19348	37.92819	969.27666	-1918.9946	212.97211	1029.08699	-2132.45926	68.22176	1032.45323	-2128.73032	261.13258	752.3127	-2142.83356	294.39577	497.22454	-2063.70178	275.27889	313.0855	-2062.75803	278.38043	129.26925	-2152.63382	224.9803	120.35628	-2201.6217	258.16545	74.56834	-1978.4343	10.8399	732.80594	-2137.32346	3.55341	487.31113	-2071.12518	60.78908	303.26815	-2063.64319	29.54797	105.61481	-2154.21219	91.06153	113.62078	-2205.92407	48.80712	76.97875	-1981.59683
4	0.59	252.32296	1700.91232	-1958.17215	67.60229	1701.94794	-1971.69724	268.62965	1659.56848	-2080.72845	65.9741	1673.4848	-2084.29764	226.59069	1433.85864	-1954.85947	103.07295	1430.89294	-1957.40891	236.8441	1488.17963	-2102.70309	83.13847	1488.70895	-2095.82123	158.5269	1324.13925	-2169.84131	172.75608	1369.36859	-1912.81952	171.89863	1269.91249	-1883.92319	358.20885	1438.33145	-2035.42801	411.7445	1210.06836	-2040.30853	422.57648	1124.75792	-2079.2131	446.3258	1013.67218	-2029.86786	400.98457	910.86349	-1925.64911	428.78544	883.94188	-1993.51761	450.04452	855.13596	-1930.30304	-26.03139	1430.45807	-2014.46991	-89.07115	1255.06813	-2054.77173	-110.70108	1138.00354	-2058.64914	-133.01109	1004.42932	-2020.85892	-84.49142	906.53488	-1912.50214	-147.56427	890.09705	-1965.78995	-146.30237	859.56551	-1896.81305	274.56333	967.00928	-1919.72855	38.53897	969.3364	-1918.54553	213.57311	1029.08714	-2132.06787	68.7659	1032.41623	-2128.34442	261.69083	752.28569	-2142.45972	294.67503	497.16438	-2063.44818	275.45498	313.03722	-2062.60498	278.45837	129.32173	-2152.52655	225.08472	120.49941	-2201.6037	258.15235	74.53524	-1978.39386	11.31889	732.8006	-2136.92139	4.00635	487.34207	-2070.63675	61.10301	303.27646	-2063.48846	29.58005	105.72535	-2154.14597	91.18765	113.65326	-2205.88531	48.83512	76.97229	-1981.57135
5	0.623	252.71778	1701.0556	-1958.00812	68.03185	1701.86447	-1971.63132	269.16975	1659.57031	-2080.44937	66.53338	1673.3786	-2084.25949	227.16293	1433.90884	-1954.51218	103.52715	1430.92072	-1957.2171	237.40818	1488.16788	-2102.44843	83.70295	1488.69354	-2095.53513	159.06151	1324.1066	-2169.617	173.23349	1369.38416	-1912.46674	172.43551	1269.91386	-1883.54675	358.82725	1438.46085	-2035.26459	412.32586	1209.98436	-2039.60175	423.18039	1124.74632	-2078.49609	446.95511	1013.64838	-2029.01199	401.54396	910.99251	-1924.71146	429.39297	884.02	-1992.58942	450.64533	855.30579	-1929.29321	-25.48393	1430.47531	-2014.11118	-88.49409	1255.04753	-2054.41315	-110.17017	1138.08594	-2058.50052	-132.2454	1004.37843	-2020.52109	-83.54469	906.34247	-1912.27325	-146.66393	890.01442	-1965.55588	-145.27841	859.37775	-1896.54938	275.00074	966.90254	-1919.38141	39.01823	969.22256	-1918.1424	214.09693	1029.06326	-2131.62872	69.33938	1032.39853	-2127.86377	262.17697	752.33475	-2142.16263	294.97396	497.15649	-2063.38531	275.63168	313.03251	-2062.58102	278.51259	129.3854	-2152.47314	225.0333	120.56922	-2201.61194	258.1847	74.54078	-1978.42102	11.85891	732.80266	-2136.61499	4.38582	487.31331	-2070.58426	61.49227	303.24646	-2063.34854	29.78601	105.84191	-2154.18884	91.34348	113.65992	-2205.83939	48.90374	76.99886	-1981.58783
6	0.657	253.12174	1700.98831	-1957.68005	68.41224	1701.79459	-1971.60797	269.71434	1659.54361	-2080.11307	67.07933	1673.26721	-2084.18198	227.56792	1433.84537	-1954.07349	104.107	1430.92697	-1956.8457	237.92608	1488.0928	-2102.15851	84.25415	1488.65295	-2095.24414	159.59827	1324.05807	-2169.28741	173.84317	1369.44489	-1912.18811	173.07819	1269.96315	-1883.25333	359.48574	1438.53897	-2035.06485	412.71118	1209.72382	-2038.83759	423.68477	1124.70413	-2077.87491	447.48661	1013.61816	-2028.23822	402.07386	911.1911	-1923.88062	429.91013	884.0625	-1991.70044	451.2191	855.44609	-1928.42377	-24.91372	1430.43167	-2013.74084	-87.92618	1255.00801	-2054.02267	-109.41808	1137.90932	-2057.9361	-131.50858	1004.26888	-2020.15961	-82.67363	906.29417	-1911.91574	-145.75471	889.80927	-1965.05707	-144.28544	859.22386	-1896.15097	275.50652	966.69945	-1919.0126	39.5375	969.21112	-1917.71011	214.67739	1029.06975	-2131.25122	69.8561	1032.43767	-2127.53418	262.63262	752.41745	-2141.99158	295.24282	497.14314	-2063.23669	275.77417	312.99017	-2062.48718	278.47338	129.3354	-2152.56622	225.03878	120.62328	-2201.59378	258.1731	74.52265	-1978.35693	12.33763	732.78839	-2136.28113	4.70938	487.29794	-2070.33112	61.82106	303.118	-2063.17932	29.85764	105.73218	-2154.04938	91.43996	113.66659	-2205.80246	48.96966	76.98583	-1981.52649
